STARTFONT 2.1
FONT -*-Indie Flower-Medium-R-Normal--15-110-96-96-c-7--fontspecific
SIZE 11 96 96
FONTBOUNDINGBOX 18 22 -2 -7
STARTPROPERTIES 15
FOUNDRY "Misc"
FAMILY_NAME "Indie Flower"
WEIGHT_NAME "Medium"
SLANT "R"
SETWIDTH_NAME "Normal"
PIXEL_SIZE 8
POINT_SIZE 110
RESOLUTION_X 96
RESOLUTION_Y 96
SPACING "C"
CHARSET_ENCODING "fontspecific"
FONT_ASCENT 15
FONT_DESCENT 7
DEFAULT_CHAR 31
COPYRIGHT "You may wish to put your copyright here"
ENDPROPERTIES
CHARS 226
STARTCHAR C0030
ENCODING 30
SWIDTH 409 0
DWIDTH 6 0
BBX 1 1 0 -1
BITMAP
00
ENDCHAR
STARTCHAR C0031
ENCODING 31
SWIDTH 409 0
DWIDTH 6 0
BBX 1 1 0 -1
BITMAP
00
ENDCHAR
STARTCHAR C0032- 
ENCODING 32
SWIDTH 409 0
DWIDTH 6 0
BBX 1 1 0 -1
BITMAP
00
ENDCHAR
STARTCHAR C0033-!
ENCODING 33
SWIDTH 136 0
DWIDTH 2 0
BBX 2 12 0 0
BITMAP
80
80
80
80
80
80
80
80
00
00
40
C0
ENDCHAR
STARTCHAR C0034-"
ENCODING 34
SWIDTH 272 0
DWIDTH 4 0
BBX 3 5 0 7
BITMAP
A0
A0
A0
A0
60
ENDCHAR
STARTCHAR C0035-#
ENCODING 35
SWIDTH 818 0
DWIDTH 12 0
BBX 11 7 0 0
BITMAP
0A00
09C0
3F20
C5E0
3F00
4500
0100
ENDCHAR
STARTCHAR C0036-$
ENCODING 36
SWIDTH 613 0
DWIDTH 9 0
BBX 8 14 0 0
BITMAP
08
0A
0E
1A
2C
1C
0C
0E
15
95
59
39
1E
18
ENDCHAR
STARTCHAR C0037-%
ENCODING 37
SWIDTH 681 0
DWIDTH 10 0
BBX 9 9 0 0
BITMAP
0100
6200
9400
9400
6900
0A80
1480
2480
2300
ENDCHAR
STARTCHAR C0038-&
ENCODING 38
SWIDTH 477 0
DWIDTH 7 0
BBX 7 10 0 0
BITMAP
30
30
30
20
26
68
58
98
98
E4
ENDCHAR
STARTCHAR C0039-'
ENCODING 39
SWIDTH 136 0
DWIDTH 2 0
BBX 1 4 0 7
BITMAP
80
80
80
80
ENDCHAR
STARTCHAR C0040-(
ENCODING 40
SWIDTH 409 0
DWIDTH 6 0
BBX 6 10 0 -1
BITMAP
0C
10
20
40
40
80
80
80
40
30
ENDCHAR
STARTCHAR C0041-)
ENCODING 41
SWIDTH 272 0
DWIDTH 4 0
BBX 4 10 0 -1
BITMAP
40
20
10
10
10
10
20
20
40
80
ENDCHAR
STARTCHAR C0042-*
ENCODING 42
SWIDTH 409 0
DWIDTH 6 0
BBX 6 6 0 3
BITMAP
8C
70
78
D8
58
10
ENDCHAR
STARTCHAR C0043-+
ENCODING 43
SWIDTH 477 0
DWIDTH 7 0
BBX 7 6 0 0
BITMAP
20
10
3E
D0
10
10
ENDCHAR
STARTCHAR C0044-,
ENCODING 44
SWIDTH 136 0
DWIDTH 2 0
BBX 1 5 0 -3
BITMAP
80
80
80
80
80
ENDCHAR
STARTCHAR C0045--
ENCODING 45
SWIDTH 409 0
DWIDTH 6 0
BBX 5 1 0 4
BITMAP
F8
ENDCHAR
STARTCHAR C0046-.
ENCODING 46
SWIDTH 204 0
DWIDTH 3 0
BBX 2 3 1 0
BITMAP
80
C0
80
ENDCHAR
STARTCHAR C0047-/
ENCODING 47
SWIDTH 340 0
DWIDTH 5 0
BBX 4 11 0 0
BITMAP
10
10
10
10
20
20
20
40
40
80
80
ENDCHAR
STARTCHAR C0048-0
ENCODING 48
SWIDTH 409 0
DWIDTH 6 0
BBX 6 6 0 0
BITMAP
38
4C
84
84
44
38
ENDCHAR
STARTCHAR C0049-1
ENCODING 49
SWIDTH 340 0
DWIDTH 5 0
BBX 4 9 0 0
BITMAP
10
10
10
30
50
90
10
10
20
ENDCHAR
STARTCHAR C0050-2
ENCODING 50
SWIDTH 477 0
DWIDTH 7 0
BBX 7 8 0 0
BITMAP
1C
14
04
06
04
04
F8
7E
ENDCHAR
STARTCHAR C0051-3
ENCODING 51
SWIDTH 409 0
DWIDTH 6 0
BBX 6 8 0 0
BITMAP
70
08
18
70
08
84
44
3C
ENDCHAR
STARTCHAR C0052-4
ENCODING 52
SWIDTH 409 0
DWIDTH 6 0
BBX 6 9 0 0
BITMAP
40
40
84
84
8C
58
24
04
04
ENDCHAR
STARTCHAR C0053-5
ENCODING 53
SWIDTH 613 0
DWIDTH 9 0
BBX 8 10 0 0
BITMAP
1F
10
20
20
1C
02
02
82
82
7C
ENDCHAR
STARTCHAR C0054-6
ENCODING 54
SWIDTH 477 0
DWIDTH 7 0
BBX 6 9 0 0
BITMAP
0C
30
40
40
78
84
84
44
78
ENDCHAR
STARTCHAR C0055-7
ENCODING 55
SWIDTH 409 0
DWIDTH 6 0
BBX 6 8 0 0
BITMAP
F8
08
10
10
7C
10
10
10
ENDCHAR
STARTCHAR C0056-8
ENCODING 56
SWIDTH 409 0
DWIDTH 6 0
BBX 5 9 0 0
BITMAP
20
50
90
60
20
50
48
48
38
ENDCHAR
STARTCHAR C0057-9
ENCODING 57
SWIDTH 340 0
DWIDTH 5 0
BBX 4 9 0 0
BITMAP
70
90
90
90
70
10
10
10
10
ENDCHAR
STARTCHAR C0058-:
ENCODING 58
SWIDTH 68 0
DWIDTH 1 0
BBX 1 4 0 1
BITMAP
80
00
00
80
ENDCHAR
STARTCHAR C0059-;
ENCODING 59
SWIDTH 136 0
DWIDTH 2 0
BBX 2 9 0 -3
BITMAP
80
00
00
00
40
40
80
80
80
ENDCHAR
STARTCHAR C0060-<
ENCODING 60
SWIDTH 477 0
DWIDTH 7 0
BBX 7 6 0 0
BITMAP
06
08
30
40
E0
1C
ENDCHAR
STARTCHAR C0061-=
ENCODING 61
SWIDTH 545 0
DWIDTH 8 0
BBX 7 4 0 2
BITMAP
7E
80
00
FE
ENDCHAR
STARTCHAR C0062->
ENCODING 62
SWIDTH 409 0
DWIDTH 6 0
BBX 6 7 0 0
BITMAP
C0
30
0C
0C
10
20
C0
ENDCHAR
STARTCHAR C0063-?
ENCODING 63
SWIDTH 272 0
DWIDTH 4 0
BBX 4 13 0 0
BITMAP
E0
10
10
10
20
20
40
60
10
00
00
00
10
ENDCHAR
STARTCHAR C0064-@
ENCODING 64
SWIDTH 818 0
DWIDTH 12 0
BBX 12 13 0 0
BITMAP
1F80
2040
4020
8010
8F90
9090
9190
91A0
51E0
4E00
2000
1000
0FE0
ENDCHAR
STARTCHAR C0065-A
ENCODING 65
SWIDTH 545 0
DWIDTH 8 0
BBX 8 11 0 0
BITMAP
3C
42
42
82
81
81
FF
41
41
41
41
ENDCHAR
STARTCHAR C0066-B
ENCODING 66
SWIDTH 749 0
DWIDTH 11 0
BBX 11 10 0 0
BITMAP
FE00
1100
1100
1600
1300
0880
0840
0820
1820
0FC0
ENDCHAR
STARTCHAR C0067-C
ENCODING 67
SWIDTH 545 0
DWIDTH 8 0
BBX 7 10 0 0
BITMAP
0C
34
48
40
80
80
80
80
42
3C
ENDCHAR
STARTCHAR C0068-D
ENCODING 68
SWIDTH 749 0
DWIDTH 11 0
BBX 11 9 0 0
BITMAP
FE00
0980
0840
0440
0420
0420
0440
04C0
0F80
ENDCHAR
STARTCHAR C0069-E
ENCODING 69
SWIDTH 545 0
DWIDTH 8 0
BBX 7 9 0 0
BITMAP
FE
80
80
9E
E0
80
80
80
7E
ENDCHAR
STARTCHAR C0070-F
ENCODING 70
SWIDTH 545 0
DWIDTH 8 0
BBX 10 9 -1 0
BITMAP
7F80
9040
1000
1000
1F00
3000
1000
0800
0800
ENDCHAR
STARTCHAR C0071-G
ENCODING 71
SWIDTH 613 0
DWIDTH 9 0
BBX 8 9 0 -1
BITMAP
07
18
20
40
8F
81
43
3D
01
ENDCHAR
STARTCHAR C0072-H
ENCODING 72
SWIDTH 545 0
DWIDTH 8 0
BBX 7 10 0 0
BITMAP
82
82
82
82
46
7A
C2
42
42
42
ENDCHAR
STARTCHAR C0073-I
ENCODING 73
SWIDTH 204 0
DWIDTH 3 0
BBX 2 8 0 0
BITMAP
80
80
40
40
40
40
40
40
ENDCHAR
STARTCHAR C0074-J
ENCODING 74
SWIDTH 477 0
DWIDTH 7 0
BBX 6 11 0 0
BITMAP
08
04
04
04
04
04
84
84
44
24
1C
ENDCHAR
STARTCHAR C0075-K
ENCODING 75
SWIDTH 477 0
DWIDTH 7 0
BBX 7 9 0 0
BITMAP
88
90
A0
40
40
60
70
48
46
ENDCHAR
STARTCHAR C0076-L
ENCODING 76
SWIDTH 340 0
DWIDTH 5 0
BBX 5 8 0 0
BITMAP
40
40
80
80
80
80
80
78
ENDCHAR
STARTCHAR C0077-M
ENCODING 77
SWIDTH 545 0
DWIDTH 8 0
BBX 8 9 0 0
BITMAP
C2
42
66
5A
42
42
42
43
41
ENDCHAR
STARTCHAR C0078-N
ENCODING 78
SWIDTH 613 0
DWIDTH 9 0
BBX 9 8 0 0
BITMAP
8000
4300
4100
4100
A080
9080
9900
8600
ENDCHAR
STARTCHAR C0079-O
ENCODING 79
SWIDTH 613 0
DWIDTH 9 0
BBX 9 7 0 0
BITMAP
7C00
8200
8100
8080
8080
6100
3E00
ENDCHAR
STARTCHAR C0080-P
ENCODING 80
SWIDTH 613 0
DWIDTH 9 0
BBX 9 9 0 0
BITMAP
7C00
8300
1080
1080
1080
0F00
0800
0800
0800
ENDCHAR
STARTCHAR C0081-Q
ENCODING 81
SWIDTH 681 0
DWIDTH 10 0
BBX 10 10 0 -2
BITMAP
3C00
4600
8500
8080
8080
4480
6580
1F00
0080
0040
ENDCHAR
STARTCHAR C0082-R
ENCODING 82
SWIDTH 613 0
DWIDTH 9 0
BBX 8 10 0 -1
BITMAP
FE
81
21
2E
30
30
28
24
22
01
ENDCHAR
STARTCHAR C0083-S
ENCODING 83
SWIDTH 613 0
DWIDTH 9 0
BBX 9 9 0 0
BITMAP
1E00
2100
2000
1000
0C00
8300
8080
4080
3F00
ENDCHAR
STARTCHAR C0084-T
ENCODING 84
SWIDTH 613 0
DWIDTH 9 0
BBX 10 9 0 0
BITMAP
FF80
0840
0800
0400
0400
0400
0400
0400
0600
ENDCHAR
STARTCHAR C0085-U
ENCODING 85
SWIDTH 613 0
DWIDTH 9 0
BBX 8 8 0 0
BITMAP
42
82
82
82
82
43
47
39
ENDCHAR
STARTCHAR C0086-V
ENCODING 86
SWIDTH 409 0
DWIDTH 6 0
BBX 6 8 0 0
BITMAP
84
44
44
44
28
28
18
10
ENDCHAR
STARTCHAR C0087-W
ENCODING 87
SWIDTH 749 0
DWIDTH 11 0
BBX 10 7 0 0
BITMAP
8080
8040
8840
8840
8840
5C40
2380
ENDCHAR
STARTCHAR C0088-X
ENCODING 88
SWIDTH 545 0
DWIDTH 8 0
BBX 8 9 0 -1
BITMAP
40
23
24
18
10
28
44
84
82
ENDCHAR
STARTCHAR C0089-Y
ENCODING 89
SWIDTH 409 0
DWIDTH 6 0
BBX 6 10 0 0
BITMAP
80
84
44
28
18
08
10
10
10
10
ENDCHAR
STARTCHAR C0090-Z
ENCODING 90
SWIDTH 613 0
DWIDTH 9 0
BBX 8 9 0 0
BITMAP
F8
04
04
04
3F
08
10
11
1E
ENDCHAR
STARTCHAR C0091-[
ENCODING 91
SWIDTH 477 0
DWIDTH 7 0
BBX 8 12 0 -1
BITMAP
02
3C
C0
80
40
40
40
40
40
40
20
3F
ENDCHAR
STARTCHAR C0092-\
ENCODING 92
SWIDTH 409 0
DWIDTH 6 0
BBX 6 8 0 0
BITMAP
80
40
20
30
18
08
04
04
ENDCHAR
STARTCHAR C0093-]
ENCODING 93
SWIDTH 409 0
DWIDTH 6 0
BBX 6 13 0 -1
BITMAP
F8
08
04
04
04
04
04
04
04
04
04
04
7C
ENDCHAR
STARTCHAR C0094-^
ENCODING 94
SWIDTH 409 0
DWIDTH 6 0
BBX 4 3 1 8
BITMAP
40
60
90
ENDCHAR
STARTCHAR C0095-_
ENCODING 95
SWIDTH 681 0
DWIDTH 10 0
BBX 10 2 0 0
BITMAP
C000
3FC0
ENDCHAR
STARTCHAR C0096-`
ENCODING 96
SWIDTH 204 0
DWIDTH 3 0
BBX 2 1 0 7
BITMAP
C0
ENDCHAR
STARTCHAR C0097-a
ENCODING 97
SWIDTH 545 0
DWIDTH 8 0
BBX 7 7 0 0
BITMAP
38
04
36
4E
82
80
7E
ENDCHAR
STARTCHAR C0098-b
ENCODING 98
SWIDTH 477 0
DWIDTH 7 0
BBX 7 10 0 0
BITMAP
80
80
80
80
80
78
46
42
42
3C
ENDCHAR
STARTCHAR C0099-c
ENCODING 99
SWIDTH 477 0
DWIDTH 7 0
BBX 6 7 0 0
BITMAP
38
48
80
80
80
40
3C
ENDCHAR
STARTCHAR C0100-d
ENCODING 100
SWIDTH 545 0
DWIDTH 8 0
BBX 8 11 0 0
BITMAP
04
04
06
02
72
4E
82
82
86
4E
71
ENDCHAR
STARTCHAR C0101-e
ENCODING 101
SWIDTH 545 0
DWIDTH 8 0
BBX 7 8 0 0
BITMAP
38
48
84
88
F0
80
40
3E
ENDCHAR
STARTCHAR C0102-f
ENCODING 102
SWIDTH 409 0
DWIDTH 6 0
BBX 7 11 0 0
BITMAP
08
34
42
40
40
40
F8
20
20
10
18
ENDCHAR
STARTCHAR C0103-g
ENCODING 103
SWIDTH 409 0
DWIDTH 6 0
BBX 8 13 -2 -7
BITMAP
0C
12
22
22
36
0A
02
02
02
83
82
42
3E
ENDCHAR
STARTCHAR C0104-h
ENCODING 104
SWIDTH 409 0
DWIDTH 6 0
BBX 6 11 0 0
BITMAP
80
80
80
80
B0
48
48
44
44
44
44
ENDCHAR
STARTCHAR C0105-i
ENCODING 105
SWIDTH 204 0
DWIDTH 3 0
BBX 2 9 0 0
BITMAP
80
00
40
40
40
40
40
40
40
ENDCHAR
STARTCHAR C0106-j
ENCODING 106
SWIDTH 204 0
DWIDTH 3 0
BBX 5 16 -2 -7
BITMAP
20
00
00
10
10
10
08
08
08
08
08
88
48
48
38
08
ENDCHAR
STARTCHAR C0107-k
ENCODING 107
SWIDTH 409 0
DWIDTH 6 0
BBX 6 9 0 0
BITMAP
80
80
88
90
60
40
40
70
4C
ENDCHAR
STARTCHAR C0108-l
ENCODING 108
SWIDTH 136 0
DWIDTH 2 0
BBX 1 9 0 0
BITMAP
80
80
80
80
80
80
80
80
80
ENDCHAR
STARTCHAR C0109-m
ENCODING 109
SWIDTH 749 0
DWIDTH 11 0
BBX 11 6 0 0
BITMAP
F3C0
CC40
8420
8420
4420
4020
ENDCHAR
STARTCHAR C0110-n
ENCODING 110
SWIDTH 477 0
DWIDTH 7 0
BBX 7 7 0 0
BITMAP
38
C4
84
84
42
42
44
ENDCHAR
STARTCHAR C0111-o
ENCODING 111
SWIDTH 477 0
DWIDTH 7 0
BBX 7 6 0 0
BITMAP
3C
44
82
82
44
38
ENDCHAR
STARTCHAR C0112-p
ENCODING 112
SWIDTH 545 0
DWIDTH 8 0
BBX 8 10 0 -5
BITMAP
7C
42
C2
F3
CC
40
40
40
40
20
ENDCHAR
STARTCHAR C0113-q
ENCODING 113
SWIDTH 409 0
DWIDTH 6 0
BBX 6 12 0 -5
BITMAP
78
44
8C
88
88
48
38
08
08
08
08
04
ENDCHAR
STARTCHAR C0114-r
ENCODING 114
SWIDTH 340 0
DWIDTH 5 0
BBX 5 7 0 0
BITMAP
30
C8
80
80
40
40
40
ENDCHAR
STARTCHAR C0115-s
ENCODING 115
SWIDTH 545 0
DWIDTH 8 0
BBX 7 7 0 0
BITMAP
78
88
40
3C
02
82
7E
ENDCHAR
STARTCHAR C0116-t
ENCODING 116
SWIDTH 340 0
DWIDTH 5 0
BBX 5 9 0 0
BITMAP
20
20
20
F8
20
20
20
20
20
ENDCHAR
STARTCHAR C0117-u
ENCODING 117
SWIDTH 545 0
DWIDTH 8 0
BBX 7 7 0 1
BITMAP
80
84
84
84
44
4E
32
ENDCHAR
STARTCHAR C0118-v
ENCODING 118
SWIDTH 409 0
DWIDTH 6 0
BBX 6 6 0 0
BITMAP
80
4C
48
48
30
10
ENDCHAR
STARTCHAR C0119-w
ENCODING 119
SWIDTH 681 0
DWIDTH 10 0
BBX 9 6 0 0
BITMAP
8000
8880
8480
8480
4C80
3380
ENDCHAR
STARTCHAR C0120-x
ENCODING 120
SWIDTH 477 0
DWIDTH 7 0
BBX 7 7 0 -1
BITMAP
82
4C
30
30
48
44
04
ENDCHAR
STARTCHAR C0121-y
ENCODING 121
SWIDTH 477 0
DWIDTH 7 0
BBX 7 14 0 -7
BITMAP
04
84
82
82
42
46
3A
02
02
02
02
82
44
3C
ENDCHAR
STARTCHAR C0122-z
ENCODING 122
SWIDTH 477 0
DWIDTH 7 0
BBX 6 8 0 0
BITMAP
70
88
08
08
7C
20
64
7C
ENDCHAR
STARTCHAR C0123-{
ENCODING 123
SWIDTH 409 0
DWIDTH 6 0
BBX 6 15 0 -2
BITMAP
3C
40
80
80
40
60
38
48
08
10
20
40
40
64
18
ENDCHAR
STARTCHAR C0124-|
ENCODING 124
SWIDTH 136 0
DWIDTH 2 0
BBX 2 10 0 0
BITMAP
80
80
80
40
40
40
40
40
40
40
ENDCHAR
STARTCHAR C0125-}
ENCODING 125
SWIDTH 477 0
DWIDTH 7 0
BBX 6 17 0 -3
BITMAP
F8
48
0C
08
10
20
20
38
20
10
08
08
04
04
04
84
F8
ENDCHAR
STARTCHAR C0126-~
ENCODING 126
SWIDTH 409 0
DWIDTH 6 0
BBX 6 2 0 6
BITMAP
6C
90
ENDCHAR
STARTCHAR C0127
ENCODING 127
SWIDTH 409 0
DWIDTH 6 0
BBX 1 1 0 -1
BITMAP
00
ENDCHAR
STARTCHAR C0128
ENCODING 128
SWIDTH 749 0
DWIDTH 11 0
BBX 11 10 0 0
BITMAP
03C0
0400
7F00
9000
1000
3F00
E000
2000
1020
0FC0
ENDCHAR
STARTCHAR C0129
ENCODING 129
SWIDTH 409 0
DWIDTH 6 0
BBX 1 1 0 -1
BITMAP
00
ENDCHAR
STARTCHAR C0130
ENCODING 130
SWIDTH 136 0
DWIDTH 2 0
BBX 1 3 0 0
BITMAP
80
80
80
ENDCHAR
STARTCHAR C0131
ENCODING 131
SWIDTH 409 0
DWIDTH 6 0
BBX 8 15 -1 -4
BITMAP
04
1A
11
20
20
20
7C
10
10
10
10
20
A0
A0
60
ENDCHAR
STARTCHAR C0132
ENCODING 132
SWIDTH 340 0
DWIDTH 5 0
BBX 3 5 1 -2
BITMAP
20
A0
A0
A0
60
ENDCHAR
STARTCHAR C0133
ENCODING 133
SWIDTH 613 0
DWIDTH 9 0
BBX 8 3 1 0
BITMAP
92
DB
92
ENDCHAR
STARTCHAR C0134
ENCODING 134
SWIDTH 409 0
DWIDTH 6 0
BBX 5 10 0 0
BITMAP
40
20
20
20
F8
20
10
10
10
10
ENDCHAR
STARTCHAR C0135
ENCODING 135
SWIDTH 409 0
DWIDTH 6 0
BBX 7 11 -1 0
BITMAP
10
10
10
10
FE
10
FE
10
08
08
08
ENDCHAR
STARTCHAR C0136
ENCODING 136
SWIDTH 409 0
DWIDTH 6 0
BBX 4 3 1 8
BITMAP
40
60
90
ENDCHAR
STARTCHAR C0137
ENCODING 137
SWIDTH 409 0
DWIDTH 6 0
BBX 1 1 0 -1
BITMAP
00
ENDCHAR
STARTCHAR C0138
ENCODING 138
SWIDTH 613 0
DWIDTH 9 0
BBX 9 11 0 0
BITMAP
1E00
0800
1E00
2100
2000
1000
0C00
8300
8080
4080
3F00
ENDCHAR
STARTCHAR C0139
ENCODING 139
SWIDTH 477 0
DWIDTH 7 0
BBX 7 6 0 0
BITMAP
06
08
30
40
E0
1C
ENDCHAR
STARTCHAR C0140
ENCODING 140
SWIDTH 886 0
DWIDTH 13 0
BBX 13 7 0 0
BITMAP
7BF0
8600
8610
83E0
4400
6400
3FF8
ENDCHAR
STARTCHAR C0141
ENCODING 141
SWIDTH 409 0
DWIDTH 6 0
BBX 1 1 0 -1
BITMAP
00
ENDCHAR
STARTCHAR C0142
ENCODING 142
SWIDTH 613 0
DWIDTH 9 0
BBX 8 12 0 0
BITMAP
3C
10
00
F8
04
04
04
3F
08
10
11
1E
ENDCHAR
STARTCHAR C0143
ENCODING 143
SWIDTH 409 0
DWIDTH 6 0
BBX 1 1 0 -1
BITMAP
00
ENDCHAR
STARTCHAR C0144
ENCODING 144
SWIDTH 409 0
DWIDTH 6 0
BBX 1 1 0 -1
BITMAP
00
ENDCHAR
STARTCHAR C0145
ENCODING 145
SWIDTH 136 0
DWIDTH 2 0
BBX 1 4 0 7
BITMAP
80
80
80
80
ENDCHAR
STARTCHAR C0146
ENCODING 146
SWIDTH 136 0
DWIDTH 2 0
BBX 1 4 0 7
BITMAP
80
80
80
80
ENDCHAR
STARTCHAR C0147
ENCODING 147
SWIDTH 272 0
DWIDTH 4 0
BBX 3 5 0 7
BITMAP
A0
A0
A0
A0
60
ENDCHAR
STARTCHAR C0148
ENCODING 148
SWIDTH 272 0
DWIDTH 4 0
BBX 3 5 0 7
BITMAP
A0
A0
A0
A0
60
ENDCHAR
STARTCHAR C0149
ENCODING 149
SWIDTH 340 0
DWIDTH 5 0
BBX 2 3 2 2
BITMAP
C0
C0
80
ENDCHAR
STARTCHAR C0150
ENCODING 150
SWIDTH 272 0
DWIDTH 4 0
BBX 4 1 0 4
BITMAP
F0
ENDCHAR
STARTCHAR C0151
ENCODING 151
SWIDTH 545 0
DWIDTH 8 0
BBX 7 1 0 4
BITMAP
FE
ENDCHAR
STARTCHAR C0152
ENCODING 152
SWIDTH 409 0
DWIDTH 6 0
BBX 6 2 0 6
BITMAP
6C
90
ENDCHAR
STARTCHAR C0153
ENCODING 153
SWIDTH 1159 0
DWIDTH 17 0
BBX 16 9 0 0
BITMAP
FFC1
0823
0837
0449
0441
0441
0441
0441
0641
ENDCHAR
STARTCHAR C0154
ENCODING 154
SWIDTH 545 0
DWIDTH 8 0
BBX 7 9 0 0
BITMAP
3C
10
78
88
40
3C
02
82
7E
ENDCHAR
STARTCHAR C0155
ENCODING 155
SWIDTH 409 0
DWIDTH 6 0
BBX 6 7 0 0
BITMAP
C0
30
0C
0C
10
20
C0
ENDCHAR
STARTCHAR C0156
ENCODING 156
SWIDTH 886 0
DWIDTH 13 0
BBX 13 8 0 -1
BITMAP
01E0
3E20
4620
82C0
8300
4600
3988
0070
ENDCHAR
STARTCHAR C0157
ENCODING 157
SWIDTH 409 0
DWIDTH 6 0
BBX 1 1 0 -1
BITMAP
00
ENDCHAR
STARTCHAR C0158
ENCODING 158
SWIDTH 477 0
DWIDTH 7 0
BBX 6 10 0 0
BITMAP
78
20
70
88
08
08
7C
20
64
7C
ENDCHAR
STARTCHAR C0159
ENCODING 159
SWIDTH 409 0
DWIDTH 6 0
BBX 6 12 0 0
BITMAP
48
70
80
84
44
28
18
08
10
10
10
10
ENDCHAR
STARTCHAR C0160
ENCODING 160
SWIDTH 409 0
DWIDTH 6 0
BBX 1 1 0 -1
BITMAP
00
ENDCHAR
STARTCHAR C0161
ENCODING 161
SWIDTH 136 0
DWIDTH 2 0
BBX 2 10 0 0
BITMAP
C0
00
00
80
80
80
80
80
80
80
ENDCHAR
STARTCHAR C0162
ENCODING 162
SWIDTH 477 0
DWIDTH 7 0
BBX 6 9 0 -1
BITMAP
10
10
78
98
90
90
50
7C
10
ENDCHAR
STARTCHAR C0163
ENCODING 163
SWIDTH 749 0
DWIDTH 11 0
BBX 11 11 0 0
BITMAP
01C0
0220
0220
0400
0780
3C00
0800
0800
0800
FF00
E000
ENDCHAR
STARTCHAR C0164
ENCODING 164
SWIDTH 613 0
DWIDTH 9 0
BBX 9 8 0 0
BITMAP
C080
7F00
2100
4100
4100
2200
7E00
4100
ENDCHAR
STARTCHAR C0165
ENCODING 165
SWIDTH 409 0
DWIDTH 6 0
BBX 6 11 0 0
BITMAP
44
44
48
28
30
10
F8
10
78
20
20
ENDCHAR
STARTCHAR C0166
ENCODING 166
SWIDTH 136 0
DWIDTH 2 0
BBX 1 9 0 0
BITMAP
80
80
80
80
00
80
80
80
80
ENDCHAR
STARTCHAR C0167
ENCODING 167
SWIDTH 545 0
DWIDTH 8 0
BBX 8 10 0 0
BITMAP
38
46
40
7C
42
41
3E
02
42
3E
ENDCHAR
STARTCHAR C0168
ENCODING 168
SWIDTH 409 0
DWIDTH 6 0
BBX 4 2 1 6
BITMAP
90
E0
ENDCHAR
STARTCHAR C0169
ENCODING 169
SWIDTH 681 0
DWIDTH 10 0
BBX 10 8 0 0
BITMAP
3E00
4D80
5280
A440
A040
5040
6F80
3E00
ENDCHAR
STARTCHAR C0170
ENCODING 170
SWIDTH 272 0
DWIDTH 4 0
BBX 4 4 0 3
BITMAP
E0
60
A0
F0
ENDCHAR
STARTCHAR C0171
ENCODING 171
SWIDTH 749 0
DWIDTH 11 0
BBX 10 7 0 0
BITMAP
0040
0780
0A00
3400
4E00
E1C0
1C00
ENDCHAR
STARTCHAR C0172
ENCODING 172
SWIDTH 409 0
DWIDTH 6 0
BBX 5 2 0 4
BITMAP
78
88
ENDCHAR
STARTCHAR C0173
ENCODING 173
SWIDTH 409 0
DWIDTH 6 0
BBX 5 1 0 4
BITMAP
F8
ENDCHAR
STARTCHAR C0174
ENCODING 174
SWIDTH 749 0
DWIDTH 11 0
BBX 9 9 1 0
BITMAP
3800
4600
B900
E700
BC80
9080
A880
5700
3C00
ENDCHAR
STARTCHAR C0175
ENCODING 175
SWIDTH 272 0
DWIDTH 4 0
BBX 4 1 0 7
BITMAP
F0
ENDCHAR
STARTCHAR C0176
ENCODING 176
SWIDTH 272 0
DWIDTH 4 0
BBX 3 4 0 4
BITMAP
60
A0
A0
60
ENDCHAR
STARTCHAR C0177
ENCODING 177
SWIDTH 477 0
DWIDTH 7 0
BBX 7 7 0 0
BITMAP
20
10
3C
D2
10
1C
62
ENDCHAR
STARTCHAR C0178
ENCODING 178
SWIDTH 272 0
DWIDTH 4 0
BBX 4 5 0 3
BITMAP
20
20
30
20
F0
ENDCHAR
STARTCHAR C0179
ENCODING 179
SWIDTH 204 0
DWIDTH 3 0
BBX 3 5 0 4
BITMAP
C0
20
40
A0
60
ENDCHAR
STARTCHAR C0180
ENCODING 180
SWIDTH 204 0
DWIDTH 3 0
BBX 2 2 0 6
BITMAP
40
80
ENDCHAR
STARTCHAR C0181
ENCODING 181
SWIDTH 545 0
DWIDTH 8 0
BBX 7 8 0 -1
BITMAP
80
84
84
84
C6
EA
92
80
ENDCHAR
STARTCHAR C0182
ENCODING 182
SWIDTH 409 0
DWIDTH 6 0
BBX 6 9 0 -1
BITMAP
38
78
F4
F4
14
14
14
14
00
ENDCHAR
STARTCHAR C0183
ENCODING 183
SWIDTH 204 0
DWIDTH 3 0
BBX 2 1 1 3
BITMAP
C0
ENDCHAR
STARTCHAR C0184
ENCODING 184
SWIDTH 477 0
DWIDTH 7 0
BBX 4 5 2 -5
BITMAP
80
40
30
D0
20
ENDCHAR
STARTCHAR C0185
ENCODING 185
SWIDTH 204 0
DWIDTH 3 0
BBX 3 6 0 3
BITMAP
20
20
60
A0
20
40
ENDCHAR
STARTCHAR C0186
ENCODING 186
SWIDTH 272 0
DWIDTH 4 0
BBX 3 4 0 4
BITMAP
60
A0
A0
60
ENDCHAR
STARTCHAR C0187
ENCODING 187
SWIDTH 681 0
DWIDTH 10 0
BBX 9 7 0 0
BITMAP
C800
3700
0C80
0D00
1200
2C00
D000
ENDCHAR
STARTCHAR C0188
ENCODING 188
SWIDTH 613 0
DWIDTH 9 0
BBX 8 11 0 0
BITMAP
08
28
28
68
B0
58
58
19
29
27
21
ENDCHAR
STARTCHAR C0189
ENCODING 189
SWIDTH 613 0
DWIDTH 9 0
BBX 8 11 0 -1
BITMAP
28
28
28
68
AB
35
51
11
2A
2F
20
ENDCHAR
STARTCHAR C0190
ENCODING 190
SWIDTH 613 0
DWIDTH 9 0
BBX 9 12 0 -1
BITMAP
0800
0800
E800
4800
6800
B400
7400
1580
1500
2300
2100
2000
ENDCHAR
STARTCHAR C0191
ENCODING 191
SWIDTH 272 0
DWIDTH 4 0
BBX 4 11 0 0
BITMAP
80
00
00
00
E0
20
40
80
80
80
70
ENDCHAR
STARTCHAR C0192
ENCODING 192
SWIDTH 545 0
DWIDTH 8 0
BBX 8 14 0 0
BITMAP
18
00
00
3C
42
42
82
81
81
FF
41
41
41
41
ENDCHAR
STARTCHAR C0193
ENCODING 193
SWIDTH 545 0
DWIDTH 8 0
BBX 8 14 0 0
BITMAP
10
20
00
3C
42
42
82
81
81
FF
41
41
41
41
ENDCHAR
STARTCHAR C0194
ENCODING 194
SWIDTH 545 0
DWIDTH 8 0
BBX 8 15 0 0
BITMAP
10
18
24
00
3C
42
42
82
81
81
FF
41
41
41
41
ENDCHAR
STARTCHAR C0195
ENCODING 195
SWIDTH 545 0
DWIDTH 8 0
BBX 8 13 0 0
BITMAP
36
48
34
42
42
82
81
81
FF
41
41
41
41
ENDCHAR
STARTCHAR C0196
ENCODING 196
SWIDTH 545 0
DWIDTH 8 0
BBX 8 14 0 0
BITMAP
24
38
00
3C
42
42
82
81
81
FF
41
41
41
41
ENDCHAR
STARTCHAR C0197
ENCODING 197
SWIDTH 545 0
DWIDTH 8 0
BBX 8 14 0 0
BITMAP
18
28
18
24
42
42
82
81
81
FF
41
41
41
41
ENDCHAR
STARTCHAR C0198
ENCODING 198
SWIDTH 954 0
DWIDTH 14 0
BBX 14 11 0 0
BITMAP
3C00
4200
43FC
8100
8100
813C
FFC0
4100
4100
4100
41FC
ENDCHAR
STARTCHAR C0199
ENCODING 199
SWIDTH 545 0
DWIDTH 8 0
BBX 7 15 0 -5
BITMAP
0C
34
48
40
80
80
80
80
42
3C
20
30
0C
24
18
ENDCHAR
STARTCHAR C0200
ENCODING 200
SWIDTH 545 0
DWIDTH 8 0
BBX 7 12 0 0
BITMAP
30
00
00
FE
80
80
9E
E0
80
80
80
7E
ENDCHAR
STARTCHAR C0201
ENCODING 201
SWIDTH 545 0
DWIDTH 8 0
BBX 7 12 0 0
BITMAP
10
20
00
FE
80
80
9E
E0
80
80
80
7E
ENDCHAR
STARTCHAR C0202
ENCODING 202
SWIDTH 545 0
DWIDTH 8 0
BBX 7 13 0 0
BITMAP
10
18
24
00
FE
80
80
9E
E0
80
80
80
7E
ENDCHAR
STARTCHAR C0203
ENCODING 203
SWIDTH 545 0
DWIDTH 8 0
BBX 7 12 0 0
BITMAP
24
38
00
FE
80
80
9E
E0
80
80
80
7E
ENDCHAR
STARTCHAR C0204
ENCODING 204
SWIDTH 204 0
DWIDTH 3 0
BBX 3 11 -1 0
BITMAP
C0
00
00
40
40
20
20
20
20
20
20
ENDCHAR
STARTCHAR C0205
ENCODING 205
SWIDTH 204 0
DWIDTH 3 0
BBX 2 11 0 0
BITMAP
40
80
00
80
80
40
40
40
40
40
40
ENDCHAR
STARTCHAR C0206
ENCODING 206
SWIDTH 204 0
DWIDTH 3 0
BBX 4 13 0 0
BITMAP
40
60
90
00
00
80
80
40
40
40
40
40
40
ENDCHAR
STARTCHAR C0207
ENCODING 207
SWIDTH 204 0
DWIDTH 3 0
BBX 4 10 -2 0
BITMAP
90
E0
20
20
10
10
10
10
10
10
ENDCHAR
STARTCHAR C0208
ENCODING 208
SWIDTH 749 0
DWIDTH 11 0
BBX 11 9 0 0
BITMAP
FE00
0980
0840
0640
1D20
0420
0440
04C0
0F80
ENDCHAR
STARTCHAR C0209
ENCODING 209
SWIDTH 613 0
DWIDTH 9 0
BBX 9 10 0 0
BITMAP
1B00
2400
8000
4300
4100
4100
A080
9080
9900
8600
ENDCHAR
STARTCHAR C0210
ENCODING 210
SWIDTH 613 0
DWIDTH 9 0
BBX 9 10 0 0
BITMAP
1800
0000
0000
7C00
8200
8100
8080
8080
6100
3E00
ENDCHAR
STARTCHAR C0211
ENCODING 211
SWIDTH 613 0
DWIDTH 9 0
BBX 9 10 0 0
BITMAP
0800
1000
0000
7C00
8200
8100
8080
8080
6100
3E00
ENDCHAR
STARTCHAR C0212
ENCODING 212
SWIDTH 613 0
DWIDTH 9 0
BBX 9 12 0 0
BITMAP
1000
1800
2400
0000
0000
7C00
8200
8100
8080
8080
6100
3E00
ENDCHAR
STARTCHAR C0213
ENCODING 213
SWIDTH 613 0
DWIDTH 9 0
BBX 9 10 0 0
BITMAP
3600
4800
0000
7C00
8200
8100
8080
8080
6100
3E00
ENDCHAR
STARTCHAR C0214
ENCODING 214
SWIDTH 613 0
DWIDTH 9 0
BBX 9 10 0 0
BITMAP
1200
1C00
0000
7C00
8200
8100
8080
8080
6100
3E00
ENDCHAR
STARTCHAR C0215
ENCODING 215
SWIDTH 477 0
DWIDTH 7 0
BBX 4 4 1 1
BITMAP
90
60
60
90
ENDCHAR
STARTCHAR C0216
ENCODING 216
SWIDTH 613 0
DWIDTH 9 0
BBX 9 12 0 -2
BITMAP
0400
0400
0400
7C00
8A00
8900
9080
9080
5100
3E00
2000
4000
ENDCHAR
STARTCHAR C0217
ENCODING 217
SWIDTH 613 0
DWIDTH 9 0
BBX 8 10 0 0
BITMAP
18
00
42
82
82
82
82
43
47
39
ENDCHAR
STARTCHAR C0218
ENCODING 218
SWIDTH 613 0
DWIDTH 9 0
BBX 8 10 0 0
BITMAP
08
10
42
82
82
82
82
43
47
39
ENDCHAR
STARTCHAR C0219
ENCODING 219
SWIDTH 613 0
DWIDTH 9 0
BBX 8 13 0 0
BITMAP
08
0C
12
00
00
42
82
82
82
82
43
47
39
ENDCHAR
STARTCHAR C0220
ENCODING 220
SWIDTH 613 0
DWIDTH 9 0
BBX 8 10 0 0
BITMAP
24
38
42
82
82
82
82
43
47
39
ENDCHAR
STARTCHAR C0221
ENCODING 221
SWIDTH 409 0
DWIDTH 6 0
BBX 6 12 0 0
BITMAP
08
10
80
84
44
28
18
08
10
10
10
10
ENDCHAR
STARTCHAR C0222
ENCODING 222
SWIDTH 477 0
DWIDTH 7 0
BBX 6 11 1 -2
BITMAP
80
80
80
80
F0
8C
84
84
F8
80
80
ENDCHAR
STARTCHAR C0223
ENCODING 223
SWIDTH 613 0
DWIDTH 9 0
BBX 9 13 0 -2
BITMAP
0000
7800
8400
4800
5800
5C00
4200
4100
4080
4100
5E00
4000
4000
ENDCHAR
STARTCHAR C0224
ENCODING 224
SWIDTH 545 0
DWIDTH 8 0
BBX 7 9 0 0
BITMAP
30
00
38
04
36
4E
82
80
7E
ENDCHAR
STARTCHAR C0225
ENCODING 225
SWIDTH 545 0
DWIDTH 8 0
BBX 7 10 0 0
BITMAP
10
20
00
38
04
36
4E
82
80
7E
ENDCHAR
STARTCHAR C0226
ENCODING 226
SWIDTH 545 0
DWIDTH 8 0
BBX 7 11 0 0
BITMAP
10
18
24
00
38
04
36
4E
82
80
7E
ENDCHAR
STARTCHAR C0227
ENCODING 227
SWIDTH 545 0
DWIDTH 8 0
BBX 7 10 0 0
BITMAP
36
48
00
38
04
36
4E
82
80
7E
ENDCHAR
STARTCHAR C0228
ENCODING 228
SWIDTH 545 0
DWIDTH 8 0
BBX 7 10 0 0
BITMAP
24
38
00
38
04
36
4E
82
80
7E
ENDCHAR
STARTCHAR C0229
ENCODING 229
SWIDTH 545 0
DWIDTH 8 0
BBX 7 10 0 0
BITMAP
18
28
18
28
04
36
4E
82
80
7E
ENDCHAR
STARTCHAR C0230
ENCODING 230
SWIDTH 886 0
DWIDTH 13 0
BBX 13 7 0 0
BITMAP
39E0
0620
3620
4FC0
8200
8100
7EF8
ENDCHAR
STARTCHAR C0231
ENCODING 231
SWIDTH 477 0
DWIDTH 7 0
BBX 6 11 0 -4
BITMAP
10
68
88
80
80
40
3C
20
10
0C
3C
ENDCHAR
STARTCHAR C0232
ENCODING 232
SWIDTH 545 0
DWIDTH 8 0
BBX 7 10 0 0
BITMAP
30
00
38
48
84
88
F0
80
40
3E
ENDCHAR
STARTCHAR C0233
ENCODING 233
SWIDTH 545 0
DWIDTH 8 0
BBX 7 10 0 0
BITMAP
10
20
38
48
84
88
F0
80
40
3E
ENDCHAR
STARTCHAR C0234
ENCODING 234
SWIDTH 545 0
DWIDTH 8 0
BBX 7 11 0 0
BITMAP
10
18
24
38
48
84
88
F0
80
40
3E
ENDCHAR
STARTCHAR C0235
ENCODING 235
SWIDTH 545 0
DWIDTH 8 0
BBX 7 10 0 0
BITMAP
24
38
38
48
84
88
F0
80
40
3E
ENDCHAR
STARTCHAR C0236
ENCODING 236
SWIDTH 204 0
DWIDTH 3 0
BBX 2 9 0 0
BITMAP
80
40
40
40
40
40
40
40
40
ENDCHAR
STARTCHAR C0237
ENCODING 237
SWIDTH 204 0
DWIDTH 3 0
BBX 2 9 0 0
BITMAP
40
80
40
40
40
40
40
40
40
ENDCHAR
STARTCHAR C0238
ENCODING 238
SWIDTH 204 0
DWIDTH 3 0
BBX 4 11 -1 0
BITMAP
20
30
D0
00
20
20
20
20
20
20
20
ENDCHAR
STARTCHAR C0239
ENCODING 239
SWIDTH 204 0
DWIDTH 3 0
BBX 4 9 -1 0
BITMAP
50
90
20
20
20
20
20
20
20
ENDCHAR
STARTCHAR C0240
ENCODING 240
SWIDTH 409 0
DWIDTH 6 0
BBX 6 8 0 0
BITMAP
E0
1C
38
04
7C
84
84
78
ENDCHAR
STARTCHAR C0241
ENCODING 241
SWIDTH 477 0
DWIDTH 7 0
BBX 7 9 0 0
BITMAP
6C
90
38
C4
84
84
42
42
44
ENDCHAR
STARTCHAR C0242
ENCODING 242
SWIDTH 477 0
DWIDTH 7 0
BBX 7 8 0 0
BITMAP
18
00
3C
44
82
82
44
38
ENDCHAR
STARTCHAR C0243
ENCODING 243
SWIDTH 477 0
DWIDTH 7 0
BBX 7 9 0 0
BITMAP
10
20
00
3C
44
82
82
44
38
ENDCHAR
STARTCHAR C0244
ENCODING 244
SWIDTH 477 0
DWIDTH 7 0
BBX 7 10 0 0
BITMAP
10
18
24
00
3C
44
82
82
44
38
ENDCHAR
STARTCHAR C0245
ENCODING 245
SWIDTH 477 0
DWIDTH 7 0
BBX 7 8 0 0
BITMAP
36
48
3C
44
82
82
44
38
ENDCHAR
STARTCHAR C0246
ENCODING 246
SWIDTH 477 0
DWIDTH 7 0
BBX 7 8 0 0
BITMAP
24
38
3C
44
82
82
44
38
ENDCHAR
STARTCHAR C0247
ENCODING 247
SWIDTH 340 0
DWIDTH 5 0
BBX 4 4 0 1
BITMAP
20
F0
00
20
ENDCHAR
STARTCHAR C0248
ENCODING 248
SWIDTH 477 0
DWIDTH 7 0
BBX 7 7 0 0
BITMAP
04
3C
4E
92
A2
64
78
ENDCHAR
STARTCHAR C0249
ENCODING 249
SWIDTH 545 0
DWIDTH 8 0
BBX 7 9 0 1
BITMAP
30
00
80
84
84
84
44
4E
32
ENDCHAR
STARTCHAR C0250
ENCODING 250
SWIDTH 545 0
DWIDTH 8 0
BBX 7 9 0 1
BITMAP
10
20
80
84
84
84
44
4E
32
ENDCHAR
STARTCHAR C0251
ENCODING 251
SWIDTH 545 0
DWIDTH 8 0
BBX 7 10 0 1
BITMAP
10
18
24
80
84
84
84
44
4E
32
ENDCHAR
STARTCHAR C0252
ENCODING 252
SWIDTH 545 0
DWIDTH 8 0
BBX 7 8 0 1
BITMAP
48
70
84
84
84
44
4E
32
ENDCHAR
STARTCHAR C0253
ENCODING 253
SWIDTH 477 0
DWIDTH 7 0
BBX 7 17 0 -7
BITMAP
10
20
00
04
84
82
82
42
46
3A
02
02
02
02
82
44
3C
ENDCHAR
STARTCHAR C0254
ENCODING 254
SWIDTH 545 0
DWIDTH 8 0
BBX 8 11 0 -3
BITMAP
40
80
98
66
42
83
FE
80
80
80
80
ENDCHAR
STARTCHAR C0255
ENCODING 255
SWIDTH 477 0
DWIDTH 7 0
BBX 7 16 0 -7
BITMAP
24
38
04
84
82
82
42
46
3A
02
02
02
02
82
44
3C
ENDCHAR
ENDFONT

